<?xml version="1.0" encoding="UTF-8" standalone="no"?>
<svg
   xmlns:dc="http://purl.org/dc/elements/1.1/"
   xmlns:cc="http://creativecommons.org/ns#"
   xmlns:rdf="http://www.w3.org/1999/02/22-rdf-syntax-ns#"
   xmlns:svg="http://www.w3.org/2000/svg"
   xmlns="http://www.w3.org/2000/svg"
   xmlns:sodipodi="http://sodipodi.sourceforge.net/DTD/sodipodi-0.dtd"
   xmlns:inkscape="http://www.inkscape.org/namespaces/inkscape"
   width="530.38934"
   height="273"
   viewBox="0 0 530.38934 273"
   id="svg2"
   version="1.1"
   inkscape:version="0.47 r22583"
   sodipodi:docname="bfield_hypothesis.svg">
  <metadata
     id="metadata256">
    <rdf:RDF>
      <cc:Work
         rdf:about="">
        <dc:format>image/svg+xml</dc:format>
        <dc:type
           rdf:resource="http://purl.org/dc/dcmitype/StillImage" />
      </cc:Work>
    </rdf:RDF>
  </metadata>
  <sodipodi:namedview
     pagecolor="#ffffff"
     bordercolor="#666666"
     borderopacity="1"
     objecttolerance="10"
     gridtolerance="10"
     guidetolerance="10"
     inkscape:pageopacity="0"
     inkscape:pageshadow="2"
     inkscape:window-width="714"
     inkscape:window-height="845"
     id="namedview254"
     showgrid="false"
     inkscape:zoom="0.83950617"
     inkscape:cx="249.50676"
     inkscape:cy="36.884985"
     inkscape:window-x="0"
     inkscape:window-y="0"
     inkscape:window-maximized="0"
     inkscape:current-layer="svg2" />
  <title
     id="title4">
/tmp/bfield_hypothesis.svg
</title>
  <desc
     id="desc6">
Creator: ROOT Version 5.26/00
CreationDate: Thu Oct 21 20:44:43 2010
</desc>
  <defs
     id="defs8">
    <inkscape:perspective
       sodipodi:type="inkscape:persp3d"
       inkscape:vp_x="0 : 283.5 : 1"
       inkscape:vp_y="0 : 1000 : 0"
       inkscape:vp_z="567 : 283.5 : 1"
       inkscape:persp3d-origin="283.5 : 189 : 1"
       id="perspective258" />
    <inkscape:perspective
       id="perspective3072"
       inkscape:persp3d-origin="0.5 : 0.33333333 : 1"
       inkscape:vp_z="1 : 0.5 : 1"
       inkscape:vp_y="0 : 1000 : 0"
       inkscape:vp_x="0 : 0.5 : 1"
       sodipodi:type="inkscape:persp3d" />
  </defs>
  <path
     style="fill:#fffdc8;fill-opacity:1;stroke:#000000;stroke-dasharray:3, 3"
     d="m 289.74259,136.5 -1,-6 v -6 l -1,-6 v -5 l -1,-6 -2,-5 -1,-6.000004 -2,-5 -2,-6 -2,-5 -3,-4.999995 -2,-5 -3,-5 -3,-5 -3,-4 -4,-5 -4,-4 -3,-5 -4,-4 -4,-4 -5,-3 -4,-4 -5,-3 -5,-3 -5,-3 -4,-3 -6,-3 -5,-2 -5,-2 -5,-2.000001 -6,-2 -5,-1 -6,-1 -6,-1 -5,-1 h -29 l -5,1 -6,1 -6,1 -5,1 -6,2 -5,2.000001 -5,2 -4.999997,2 -6,3 -5,3 -3.999999,3 -5,3 -5,3 -4,4 -5,3 -4,4 -4,4 -4,5 -3,4 -4,5 -3,4 -3,5 -3,5 -2,5 -3,4.999995 -2,5 -2,6 -2,5 -1,6.000004 -2,5 -1,6 -1,5 v 12 l -1,6 1,5 v 12 l 1,5 1,6 2,5 1,6 2,5 2,6 2,5 3,5 2,5 3,5 3,5 3,5 4,4 3,4 4,5 4,4 4,4 5,3 4,4 5,3 5,3 3.999999,3 5,3 6,3 4.999997,2 5,2 5,2 6,2 5,1 6,1 6,1 5,1 h 6 l 6,1 h 5 l 6,-1 h 6 l 5,-1 6,-1 6,-1 5,-1 6,-2 5,-2 5,-2 5,-2 6,-3 4,-3 5,-3 5,-3 5,-3 4,-4 5,-3 4,-4 4,-4 3,-5 4,-4 4,-4 3,-5 3,-5 3,-5 2,-5 3,-5 2,-5 2,-6 2,-5 1,-6 2,-5 1,-6 v -5 l 1,-6 v -6 l 1,-5"
     id="path240" />
  <path
     style="fill:#c5ffbf;fill-opacity:1;stroke:#000000;stroke-dasharray:3, 3"
     d="m 232.74259,136.5 v -6 l -1,-6 -1,-6 -1,-5 -2,-6 -3,-5 -2,-5.000004 -3,-5 -3,-4 -4,-5 -4,-4 -4,-3.999995 -5,-4 -4,-3 -5,-3 -6,-2 -5,-2 -5,-2 -6,-1 -6,-1 -5,-1 h -12 l -5,1 -6,1 -6,2 -5,2 -5,2 -5,3 -5,3 -5,3 -3.999997,3.999995 -4,4 -4,4 -3,5 -4,5 -1.999999,5.000004 -3,5 -2,5 -1,6 -2,5 v 6 l -1,6 v 5 l 1,6 v 6 l 2,5 1,6 2,5 3,5 1.999999,5 4,5 3,5 4,4 4,4 3.999997,4 5,3 5,3 5,3 5,2 5,2 6,2 6,1 5,1 h 12 l 5,-1 6,-1 6,-1 5,-2 5,-2 6,-2 5,-3 4,-3 5,-4 4,-4 4,-4 4,-4 3,-5 3,-5 2,-5 3,-5 2,-6 1,-5 1,-6 1,-6 v -5"
     id="path244" />
  <path
     style="fill:#ffffff;fill-opacity:1;stroke:#000000;stroke-dasharray:3, 3"
     d="m 186.74259,136.5 v -6 l -1,-6 -3,-5 -3,-5 -4,-4 -5,-3 -5,-3 -5,-2 h -12 l -5,1 -6,2 -5,3 -4,4 -4,4 -3,6 -1,5 -1,6 v 5 l 1,6 1,6 3,5 4,4 4,4 5,3 6,2 5,1 6,1 6,-1 5,-2 5,-2 5,-4 4,-4 3,-5 3,-5 1,-6 v -5"
     id="path248" />
  <path
     style="fill:none;stroke:#ff0000"
     d="m 153.74259,135.5 1,-1 h 1 v -1 l 1,-1 1,-1 h 1 v -1 h 1 v -1 h 1 v -1 h 1 v -1 h 1 v -1 h 1 v -1 h 1 v -1 h 1 v -1 h 1 v -1 h 1 v -1 h 2 v -1 h 1 v -1 h 1 v -1 h 1 v -1 h 1 v -1 h 1 l 1,-1 h 1 v -1 h 1 v -1 h 1 v -1 h 1 v -1 h 2 v -1 h 1 v -1 h 1 v -1 h 1 v -1 h 2 v -1 h 1 v -1 h 1 v -1 h 1 l 1,-1 h 1 v -1 h 1 v -1 h 1 v -1 h 1 l 1,-1.000004 h 1 v -1 h 1 v -1 h 1 v -1 h 1 l 1,-1 h 1 v -1 h 1 v -1 h 1 l 1,-1 h 1 v -1 h 1 v -1 h 1 v -1 h 2 v -1 h 1 v -1 h 1 v -1 h 2 v -1 h 1 v -1 h 1 v -1 h 2 v -1 h 1 v -1 h 1 v -1 h 2 v -1 h 1 v -1 h 2 v -1 h 1 v -1 h 2 v -0.999995 h 1 v -1 h 2 v -1 h 1 l 1,-1 h 1 v -1 h 2 v -1 h 1 l 1,-1 h 1 v -1 h 2 v -1 h 2 v -1 h 2 v -1 h 2 v -1 h 2 v -1 h 2 v -1 h 2 v -1 h 2 v -1 h 2 v -1 h 2 l 1,-1 h 2 v -1 h 2 v -1 h 3 v -1 h 2 l 1,-1 h 2 v -1 h 3 v -1 h 3 v -1 h 2 l 1,-1 h 2 l 1,-1 h 3 v -1 h 3 v -1 h 3 v -1 h 4 v -1 h 3 v -1 h 4 v -1 h 4 v -1 h 4 v -1 h 5 v -1 h 4 l 1,-1 h 5 v -1 h 6 v -1 h 6 v -1 h 8 v -1 h 10 v -1 h 18 v -1 h 5"
     id="path250" />
  <path
     style="fill:none;stroke:#000000"
     d="m 153.74259,135.5 1,-1 h 1 v -1 l 1,-1 1,-1 h 1 v -1 h 1 v -1 h 1 v -1 h 1 v -1 h 1 v -1 h 1 v -1 h 1 v -1 h 1 v -1 h 1 v -1 h 1 v -1 h 2 v -1 h 1 v -1 h 1 v -1 h 1 v -1 h 1 v -1 h 1 l 1,-1 h 1 v -1 h 1 v -1 h 1 v -1 h 1 v -1 h 2 v -1 h 1 v -1 h 1 v -1 h 1 l 1,-1 h 1 v -1 h 1 v -1 h 1 l 1,-1 h 1 v -1 h 1 v -1 h 2 v -1 h 1 v -1 h 1 l 1,-1.000004 h 1 v -1 h 1 v -1 h 2 v -1 h 1 v -1 h 2 v -1 h 1 v -1 h 2 v -1 h 1 l 1,-1 h 1 v -1 h 2 v -1 h 1 v -1 h 2 v -1 h 1 l 1,-1 h 1 v -1 h 2 v -1 h 2 v -1 h 1 l 1,-1 h 1 v -1 h 2 v -1 h 2 v -1 h 2 v -1 h 2 v -1 h 2 v -1 h 2 v -0.999995 h 2 v -1 h 2 v -1 h 2 v -1 h 2 v -1 h 2 v -1 h 2 l 1,-1 h 2 v -1 h 2 v -1 h 2 v -1 h 3 v -1 h 2 v -1 h 3 v -1 h 2 l 1,-1 h 2 v -1 h 3 v -1 h 3 v -1 h 3 v -1 h 3 v -1 h 3 v -1 h 3 v -1 h 3 v -1 h 4 v -1 h 3 l 1,-1 h 3 v -1 h 4 v -1 h 5 v -1 h 4 v -1 h 5 v -1 h 6 v -1 h 6 v -1 h 6 l 1,-1 h 8 v -1 h 11 v -1 h 23"
     id="path252" />
  <text
     xml:space="preserve"
     style="font-size:18px;font-style:normal;font-variant:normal;font-weight:bold;font-stretch:normal;text-align:center;text-anchor:middle;fill:#000000;fill-opacity:1;stroke:none;font-family:DejaVu Sans;-inkscape-font-specification:Bitstream Charter Bold"
     x="156.41411"
     y="175.88899"
     id="text3870"><tspan
       sodipodi:role="line"
       id="tspan3872"
       x="156.41411"
       y="175.88899">B under-</tspan><tspan
       sodipodi:role="line"
       x="156.41411"
       y="198.38899"
       id="tspan3874">estimated</tspan></text>
  <text
     xml:space="preserve"
     style="font-size:18px;font-style:normal;font-variant:normal;font-weight:bold;font-stretch:normal;text-align:center;text-anchor:middle;fill:#000000;fill-opacity:1;stroke:none;font-family:DejaVu Sans;-inkscape-font-specification:Bitstream Charter Bold"
     x="199.39693"
     y="234.69234"
     id="text3876"><tspan
       sodipodi:role="line"
       x="199.39693"
       y="234.69234"
       id="tspan3880">B over-estimated</tspan><tspan
       sodipodi:role="line"
       x="199.39693"
       y="257.19232"
       id="tspan3884">by the right amount</tspan></text>
  <text
     xml:space="preserve"
     style="font-size:18px;font-style:normal;font-variant:normal;font-weight:bold;font-stretch:normal;text-align:center;text-anchor:middle;fill:#000000;fill-opacity:1;stroke:none;font-family:DejaVu Sans;-inkscape-font-specification:Bitstream Charter Bold"
     x="348.89511"
     y="65.526337"
     id="text3886"><tspan
       sodipodi:role="line"
       id="tspan3888"
       x="348.89511"
       y="65.526337">real</tspan></text>
  <text
     xml:space="preserve"
     style="font-size:18px;font-style:normal;font-variant:normal;font-weight:bold;font-stretch:normal;text-align:center;text-anchor:middle;fill:#ff0000;fill-opacity:1;stroke:none;font-family:DejaVu Sans;-inkscape-font-specification:Bitstream Charter Bold"
     x="319.87335"
     y="23.531618"
     id="text3890"><tspan
       sodipodi:role="line"
       id="tspan3892"
       x="319.87335"
       y="23.531618">propagated</tspan></text>
  <text
     xml:space="preserve"
     style="font-size:18px;font-style:normal;font-variant:normal;font-weight:bold;font-stretch:normal;text-align:center;line-height:100%;writing-mode:lr-tb;text-anchor:middle;fill:#000000;fill-opacity:1;stroke:none;font-family:DejaVu Sans;-inkscape-font-specification:DejaVu Sans Bold"
     x="462.71356"
     y="29.716665"
     id="text3894"
     sodipodi:linespacing="100%"><tspan
       sodipodi:role="line"
       id="tspan3896"
       x="462.71356"
       y="29.716665">constant bias</tspan><tspan
       sodipodi:role="line"
       x="462.71356"
       y="47.716667"
       id="tspan3898">with distance</tspan><tspan
       sodipodi:role="line"
       x="462.71356"
       y="65.716667"
       id="tspan3900">from tracker</tspan></text>
</svg>
